<?xml version="1.0" encoding="UTF-8"?>
<svg id="Layer_1" xmlns="http://www.w3.org/2000/svg" version="1.1" viewBox="0 0 511 547">
  <!-- Generator: Adobe Illustrator 29.3.0, SVG Export Plug-In . SVG Version: 2.1.0 Build 146)  -->
  <defs>
    <style>
      .st0 {
        fill: #e6e7e8;
        stroke: #e6e7e8;
      }

      .st0, .st1, .st2, .st3, .st4 {
        stroke-miterlimit: 10;
      }

      .st0, .st1, .st3, .st4 {
        stroke-linecap: round;
      }

      .st5 {
        fill: #d1d3d4;
      }

      .st6, .st7 {
        fill: #010101;
      }

      .st7 {
        fill-rule: evenodd;
      }

      .st1 {
        fill: #bcbec0;
        stroke: #bcbec0;
      }

      .st2, .st4 {
        fill: none;
        stroke: #939598;
      }

      .st8, .st3 {
        fill: #808285;
      }

      .st3 {
        stroke: #808285;
      }
    </style>
  </defs>
  <path class="st8" d="M506.2,92.4c-6.7-14.5-19.2-28.6-35.1-39.7-3.3-2.3-6.7-4.4-10.2-6.4,0,0,0-.1,0-.2-.3-2.5-1.6-5-3.6-7-2-2-4.5-3.3-7-3.6-1-.1-1.9,0-2.8,0,3.8-4.5,6.6-9.3,8-13.7,1.7-5.3,1.2-9.6-1.4-12-2.6-2.4-6.9-2.6-12.1-.5-4.9,2-10.2,5.8-14.8,10.8-3.8,4.1-6.8,8.6-8.7,13-2.3,0-4.5,0-6.6,0l-3.7-14.4c1.1-1.3,1.8-2.8,2.1-4.5.8-5-2.7-9.7-7.7-10.5-5-.8-9.7,2.7-10.5,7.7-.7,4.4,1.9,8.5,5.8,10l3.5,13.7s0,0,0,0c-3,1-5.8,2.3-8.2,3.9l-7.2-13.3c.4-.8.7-1.7.9-2.7.4-2.4-.2-4.8-1.7-6.8-1.5-2-3.6-3.3-6-3.6-5-.8-9.7,2.7-10.5,7.7-.4,2.4.2,4.8,1.7,6.8s3.6,3.3,6,3.6c.1,0,.2,0,.3,0,0,0,0,.1,0,.2l8.6,16c-.5.9-1.1,1.8-1.5,2.7-5.2-3.1-14.1-3.8-23.5-1.9-14.2,2.9-24.1,10.7-22.7,17.6.7,3.5,4.1,6.1,9.5,7.4,2.5.6,5.3.9,8.2.9s6.6-.4,10.1-1.1c6.1-1.3,11.7-3.5,15.9-6.4.5,5.4,2.2,11.1,4.9,17.1.3.7.6,1.3,1,2l-49.1,127.1c-4-.5-8-.7-12.1-.7h-171.9c-46,0-85.1,30.3-98.3,72-.2,0-.3,0-.5,0-26.3,11.3-40.3,23.9-41.7,37.6-.7,7.3,2.1,13,4.9,18.7,3.1,6.3,6,12.2,3.6,19.7q-4.4,13.8-21,27.5c-1.7,1.4-2.3,3.5-1.6,6,1.5,5.3,8.5,11.1,12.8,11.7.4,0,.7,0,1.1,0,2.9,0,6.1-1.4,9.5-4.2,9-7.3,18.8-24.2,20.1-42.1.6-8.7-1-15.1-2.4-20.7-1.7-6.7-3-12-.3-18.8,2-5,5.7-9.4,10.9-13-.2,2.9-.4,5.8-.4,8.7v58.6c0,25.8,9.5,49.4,25.2,67.5l-43.6,60.7-.6.8h0c-.5.5-.9,1.1-1.4,1.7-3.2,4.4-3.6,10.4-1.1,16.9,2.4,6.3,7.3,12.3,13.8,17,7,5.1,14.8,7.6,21.6,7.6s11.4-2.1,14.5-6.4c1-1.5,1.7-3.1,2.2-4.8l44.3-61.7c8.9,2.5,18.3,3.9,28,3.9h171.9c12.8,0,25.1-2.4,36.5-6.7l37.7,65.2h0c.3.6.6,1.3.9,1.9,2.7,4.7,8,7.5,14.9,7.9.6,0,1.1,0,1.7,0,6.3,0,13.1-2,19.4-5.6,14.4-8.3,21.5-22.8,16-32.4-.9-1.6-2.1-2.9-3.5-4l-40.1-69.4c12.2-16.9,19.4-37.7,19.4-60.1v-58.6c0-10.5-1.6-20.7-4.5-30.3,0-.1.1-.2.1-.4l13.2-151.4c11.1,5.4,22.4,8.7,32.9,9.6,1.8.1,3.6.2,5.4.2,13.5,0,24-4.5,29.9-13,6.6-9.5,6.6-22.8-.2-37.5Z"/>
  <path class="st4" d="M55.7,284.2c-32.7,14-40.8,27.4-41.8,37.4-1.5,15.3,13.4,24.3,8.6,39.3q-4.6,14.3-21.7,28.4c-5.5,4.6,5.1,15.4,10.9,16.2,10.9,1.5,28.4-22.1,30.2-46.1,1.4-19-8-27.2-2.6-40.5,2.7-6.6,7.7-11.4,13.1-14.9"/>
  <rect class="st4" x="53" y="212" width="376" height="262.6" rx="99.9" ry="99.9"/>
  <ellipse class="st4" cx="428.2" cy="521" rx="29" ry="19.1" transform="translate(-203.1 283.9) rotate(-30)"/>
  <rect class="st0" x="73.8" y="230.8" width="340.7" height="196.4" rx="80.9" ry="80.9"/>
  <path class="st0" d="M248.1,412h130.5c0,0,0,0,0,0,0,16.7-58.9,30.5-130.5,30.5s-130.5-13.8-130.5-30.5h130.5Z"/>
  <line class="st4" x1="385.9" y1="25.3" x2="393.7" y2="39.7"/>
  <line class="st4" x1="387.2" y1="45.7" x2="378.6" y2="29.7"/>
  <line class="st4" x1="407.8" y1="18" x2="411.7" y2="32.9"/>
  <line class="st4" x1="403.1" y1="34" x2="399.5" y2="20"/>
  <circle class="st4" cx="378.7" cy="20.9" r="8.2"/>
  <circle class="st4" cx="401.9" cy="12" r="8.2"/>
  <path class="st4" d="M420.1,32.6c1.7-4.1,4.6-8.5,8.5-12.7,9.3-10,20.7-14.6,25.4-10.3,4.7,4.4,1,16.1-8.3,26.1s-1.3,1.3-1.9,1.9"/>
  <path class="st4" d="M386.8,51.8"/>
  <path class="st4" d="M386,51"/>
  <path class="st4" d="M385.7,50.7"/>
  <path class="st4" d="M382.7,64c-4,3-9.8,5.5-16.5,6.9-13.4,2.8-25.3-.1-26.6-6.5-1.3-6.3,8.5-13.7,21.9-16.4,9.6-2,18.4-1,23.2,2"/>
  <path class="st4" d="M65.5,297.5"/>
  <g>
    <path class="st3" d="M255.2,424.7c1.6,4.8-2.6,9.3-5.8,9.3s-7.6-4.5-5.8-9.3c2-5.1,5.8-9.3,5.8-9.3,0,0,4.1,4.2,5.8,9.3Z"/>
    <path class="st3" d="M249.4,429.1l5.8-4.2c1,1.3,1.5,3,1.4,4.7-.2,3.9-3.7,6.9-7.6,6.7-3.9-.2-6.9-3.7-6.7-7.6s.5-2.6,1.3-3.6l5.9,4.1Z"/>
    <path class="st3" d="M248.9,436.1c.2,1.4,0,2-.3,2.2-.3.2-.7.2-.7.3,0,.1.8.5,1.4.2.6-.3.8-1.5.4-2.9"/>
  </g>
  <g>
    <path class="st3" d="M211.1,432.6c2.3,4.6,8.4,4.7,10.6,2.5,2.3-2.3,2.2-8.6-2.5-10.6s-10.6-2.5-10.6-2.5c0,0,.1,5.9,2.5,10.6Z"/>
    <path class="st3" d="M218.3,431.5l-7.1,1.1c.3,1.7,1.1,3.2,2.3,4.3,2.9,2.6,7.5,2.3,10.1-.6,2.6-2.9,2.3-7.5-.6-10.1-1-.9-2.2-1.4-3.5-1.7l-1.3,7Z"/>
    <path class="st3" d="M223.6,436.1c.8,1.2,1.4,1.4,1.8,1.3.4,0,.7-.4.7-.3.1,0-.3.9-.8,1.1-.7.2-1.6-.5-2.3-1.7"/>
  </g>
  <g>
    <path class="st3" d="M287.7,431.3c-2.3,4.6-8.4,4.7-10.6,2.5s-2.2-8.6,2.5-10.6c5-2.2,10.6-2.5,10.6-2.5,0,0-.1,5.9-2.5,10.6Z"/>
    <path class="st3" d="M280.5,430.3l7.1,1.1c-.3,1.7-1.1,3.2-2.3,4.3-2.9,2.6-7.5,2.3-10.1-.6s-2.3-7.5.6-10.1c1-.9,2.2-1.4,3.5-1.7l1.3,7Z"/>
    <path class="st3" d="M275.2,434.9c-.8,1.2-1.4,1.4-1.8,1.3-.4,0-.7-.4-.7-.3-.1,0,.3.9.8,1.1.7.2,1.6-.5,2.3-1.7"/>
  </g>
  <path class="st3" d="M166.7,426.9c-6.3,5.2-21.5-3.7-20.9-7.4.6-3.9,20-6.6,23.2-.7,1.3,2.4,0,6.2-2.3,8.1Z"/>
  <path class="st3" d="M336,427c6.3,5.2,21.5-3.7,20.9-7.4-.6-3.9-20-6.6-23.2-.7-1.3,2.4,0,6.2,2.3,8.1Z"/>
  <path class="st0" d="M363.8,419.6c3.7,6.5,15.3-.8,25.6-13.4,1.9-2.3,6.9-8.7,12.9-19.5"/>
  <path class="st0" d="M91.3,380.9c-7.1,3.2,3.2,17,19.7,30.1,3,2.4,11.3,8.8,24.9,16.9"/>
  <rect class="st1" x="112.5" y="248.3" width="266.2" height="161.4"/>
  <path class="st4" d="M460.8,46c3.5,1.9,6.9,4.1,10.3,6.5,32.7,22.8,48.4,56.8,35.1,75.8-13.3,19.1-50.6,16-83.3-6.8-32.7-22.8-48.4-56.8-35.1-75.8,3.6-5.2,9-8.7,15.6-10.7"/>
  <path class="st4" d="M403.4,35c11-3.3,25.4-2.1,40.5,3.3"/>
  <path class="st2" d="M363.1,466.2"/>
  <path class="st2" d="M363.4,466.7"/>
  <polyline class="st2" points="402.8 532 401.5 532.7 364.2 468.1"/>
  <line class="st2" x1="409.7" y1="433" x2="450.8" y2="504.3"/>
  <ellipse class="st4" cx="56.2" cy="520.7" rx="19.1" ry="29" transform="translate(-399.4 262.5) rotate(-54.3)"/>
  <polyline class="st2" points="35.7 502.1 34.5 501.2 79 439.3"/>
  <line class="st2" x1="126.4" y1="471" x2="80.7" y2="534.5"/>
  <path class="st4" d="M389.5,84"/>
  <line class="st4" x1="339.9" y1="212.3" x2="389.1" y2="84.9"/>
  <line class="st4" x1="437.9" y1="130.7" x2="424.6" y2="283.3"/>
  <path class="st4" d="M491.4,70.3c-5.3,1.6-36.6,11.5-50.8,41.9-2,4.2-3.9,9.5-5.2,15.8"/>
  <ellipse class="st5" cx="430" cy="55" rx="8.3" ry="9.7" transform="translate(87 320.2) rotate(-45)"/>
  <ellipse class="st5" cx="451.9" cy="44.1" rx="7.4" ry="9.7" transform="translate(101.2 332.5) rotate(-45)"/>
  <g id="Power-Button--Streamline-Ultimate.svg">
    <path class="st6" d="M248.7,428.4c0,.4.3.7.7.7s.7-.3.7-.7h0v-4.5c0-.4-.3-.7-.7-.7s-.7.3-.7.7v4.5Z"/>
    <path class="st6" d="M244.2,428.7c-.4,2.9,1.6,5.5,4.5,6,1.6.2,3.3-.3,4.5-1.5,1.2-1.2,1.7-2.8,1.5-4.5-.2-1.7-1.3-3.1-2.8-3.9-.3-.2-.8-.2-1,.1-.2.3-.2.8.1,1,0,0,.1,0,.2,0,1.1.6,1.9,1.7,2,2.9.2,1.2-.2,2.4-1.1,3.2-1.5,1.5-3.9,1.5-5.4,0-.9-.8-1.3-2.1-1.1-3.2.2-1.2.9-2.3,2-2.9.3-.2.4-.7.1-1-.2-.3-.5-.4-.8-.2-1.5.8-2.5,2.3-2.8,3.9Z"/>
  </g>
  <g id="Free_Remix_x2F_Entertainment_x2F_button-pause-2--button-television-buttons-movies-tv-pause-video-controls">
    <path id="Union" class="st7" d="M215.4,429.1c0-.1,0-.2.2-.2h1.4c.1,0,.2,0,.2.2v5.7c0,.1,0,.2-.2.2h-1.4c-.1,0-.2,0-.2-.2v-5.7ZM215.6,428.2c-.5,0-.9.4-.9.9v5.7c0,.5.4.9.9.9h1.4c.5,0,.9-.4.9-.9v-5.7c0-.5-.4-.9-.9-.9h-1.4ZM219.6,429.1c0-.1,0-.2.2-.2h1.4c.1,0,.2,0,.2.2v5.7c0,.1,0,.2-.2.2h-1.4c-.1,0-.2,0-.2-.2v-5.7ZM219.8,428.2c-.5,0-.9.4-.9.9v5.7c0,.5.4.9.9.9h1.4c.5,0,.9-.4.9-.9v-5.7c0-.5-.4-.9-.9-.9h-1.4Z"/>
  </g>
  <g id="Free_Remix_x2F_Entertainment_x2F_button-play--button-television-buttons-movies-play-tv-video-controls">
    <path id="Vector__x28_Stroke_x29_" class="st7" d="M278.1,427.4c.2,0,.4-.1.6-.1s.4,0,.6.1c0,0,0,0,0,0l5.2,2.8c.2,0,.3.2.4.3.1.1.2.3.2.5s0,.3-.2.5c-.1.1-.2.3-.4.3l-5.2,2.8s0,0,0,0c-.2,0-.4.1-.6.1s-.4,0-.6-.1c-.2,0-.3-.2-.4-.3-.1-.1-.2-.3-.2-.5h0s0-5.6,0-5.6c0-.2,0-.3.2-.5.1-.1.3-.3.4-.3ZM278.7,428c0,0-.1,0-.2,0,0,0,0,0,0,0,0,0,0,0-.1,0,0,0,0,0,0,.1v5.6s0,0,0,.1c0,0,0,0,.1,0,0,0,0,0,0,0,0,0,.1,0,.2,0s.1,0,.2,0l5.2-2.8s0,0,0,0c0,0,0,0,.1,0,0,0,0,0,0-.1s0,0,0-.1c0,0,0,0-.1,0,0,0,0,0,0,0l-5.2-2.8s-.1,0-.2,0Z"/>
  </g>
  <g id="Free_Remix_x2F_Entertainment_x2F_button-fast-forward-1--button-controls-fast-forward-movies-television-video-tv">
    <path id="Union1" data-name="Union" class="st7" d="M339,418.6c0-.1,0-.2.2-.3.1,0,.2,0,.3,0l3.3,3.8c0,0,0,.1,0,.2h0c0,0,0,.2,0,.2l-3.3,3.8c0,.1-.2.1-.3,0-.1,0-.2-.2-.2-.3v-7.7ZM342.8,424.1l-2.7,3.1c-.7.9-2.1.3-2.1-1v-7.7c0-1.3,1.3-1.8,2.1-1l2.7,3.1v-2.2c0-1.3,1.3-1.8,2.1-1l3.3,3.8c.5.5.5,1.4,0,1.9l-3.3,3.8c-.7.9-2.1.3-2.1-1,0,0,0-2.2,0-2.2ZM343.8,422.4v3.8c0,.1,0,.2.2.3.1,0,.2,0,.3,0l3.3-3.8c0-.1,0-.3,0-.4l-3.3-3.8c0-.1-.2-.1-.3,0-.1,0-.2.2-.2.3v3.8s0,0,0,0Z"/>
  </g>
  <g id="Free_Remix_x2F_Entertainment_x2F_button-fast-forward-1--button-controls-fast-forward-movies-television-video-tv1" data-name="Free_Remix_x2F_Entertainment_x2F_button-fast-forward-1--button-controls-fast-forward-movies-television-video-tv">
    <path id="Union2" data-name="Union" class="st7" d="M165.7,418.2c0-.1,0-.2-.2-.3-.1,0-.2,0-.3,0l-3.3,3.8c0,0,0,.1,0,.2h0c0,0,0,.2,0,.2l3.3,3.8c0,.1.2.1.3,0,.1,0,.2-.2.2-.3v-7.7ZM161.9,423.7l2.7,3.1c.7.9,2.1.3,2.1-1v-7.7c0-1.3-1.3-1.8-2.1-1l-2.7,3.1v-2.2c0-1.3-1.3-1.8-2.1-1l-3.3,3.8c-.5.5-.5,1.4,0,1.9l3.3,3.8c.7.9,2.1.3,2.1-1,0,0,0-2.2,0-2.2ZM160.9,422v3.8c0,.1,0,.2-.2.3-.1,0-.2,0-.3,0l-3.3-3.8c0-.1,0-.3,0-.4l3.3-3.8c0-.1.2-.1.3,0,.1,0,.2.2.2.3v3.8s0,0,0,0Z"/>
  </g>
</svg>